HIERARCHY
ROOT hip
{
	OFFSET 0.000000 0.000000 0.000000
	CHANNELS 6 Xposition Yposition Zposition Xrotation Zrotation Yrotation 
	JOINT abdomen
	{
		OFFSET 0.000000 3.422050 0.000000
		CHANNELS 3 Xrotation Zrotation Yrotation 
		JOINT chest
		{
			OFFSET 0.000000 8.486693 -0.684411
			CHANNELS 3 Xrotation Zrotation Yrotation 
			JOINT neck
			{
				OFFSET 0.000000 10.266162 -0.273764
				CHANNELS 3 Xrotation Zrotation Yrotation 
				JOINT head
				{
					OFFSET 0.000000 3.148285 0.000000
					CHANNELS 3 Xrotation Zrotation Yrotation 
					End Site
					{
						OFFSET 0.000000 3.148289 0.000000
					}
				}
			}
			JOINT lCollar
			{
				OFFSET 3.422053 6.707223 -0.821293
				CHANNELS 3 Yrotation Zrotation Xrotation 
				JOINT lShldr
				{
					OFFSET 3.285171 0.000000 0.000000
					CHANNELS 3 Zrotation Yrotation Xrotation 
					JOINT lForeArm
					{
						OFFSET 10.129278 0.000000 0.000000
						CHANNELS 3 Yrotation Zrotation Xrotation 
						JOINT lHand
						{
							OFFSET 8.486692 0.000000 0.000000
							CHANNELS 3 Zrotation Yrotation Xrotation 
							End Site
							{
								OFFSET 4.106464 0.000000 0.000000
							}
						}
					}
				}
			}
			JOINT rCollar
			{
				OFFSET -3.558935 6.707223 -0.821293
				CHANNELS 3 Yrotation Zrotation Xrotation 
				JOINT rShldr
				{
					OFFSET -3.148289 0.000000 0.000000
					CHANNELS 3 Zrotation Yrotation Xrotation 
					JOINT rForeArm
					{
						OFFSET -10.266159 0.000000 0.000000
						CHANNELS 3 Yrotation Zrotation Xrotation 
						JOINT rHand
						{
							OFFSET -8.349810 0.000000 0.000000
							CHANNELS 3 Zrotation Yrotation Xrotation 
							End Site
							{
								OFFSET -4.106464 0.000000 0.000000
							}
						}
					}
				}
			}
		}
	}
	JOINT lThigh
	{
		OFFSET 5.338403 -1.642589 1.368821
		CHANNELS 3 Xrotation Zrotation Yrotation 
		JOINT lShin
		{
			OFFSET -2.053232 -20.121670 0.000000
			CHANNELS 3 Xrotation Zrotation Yrotation 
			JOINT lFoot
			{
				OFFSET 0.000000 -19.300380 -1.231939
				CHANNELS 3 Xrotation Yrotation Zrotation 
				End Site
				{
					OFFSET 0.000000 -2.463878 4.653993
				}
			}
		}
	}
	JOINT rThigh
	{
		OFFSET -5.338403 -1.642589 1.368821
		CHANNELS 3 Xrotation Zrotation Yrotation 
		JOINT rShin
		{
			OFFSET 2.053232 -20.121670 0.000000
			CHANNELS 3 Xrotation Zrotation Yrotation 
			JOINT rFoot
			{
				OFFSET 0.000000 -19.300380 -1.231939
				CHANNELS 3 Xrotation Yrotation Zrotation 
				End Site
				{
					OFFSET 0.000000 -2.463878 4.653993
				}
			}
		}
	}
}
MOTION
Frames: 19
Frame Time: 0.033264
19.995884 22.721600 11.561401 121.001572 -0.000273 -167.007980 13.006173 -0.001686 -8.001654 26.289278 -0.001702 -6.451015 13.997128 -18.539534 0.000114 -1.477065 -1.425580 10.094405 1.760144 -4.233248 1.606033 -52.262707 1.818793 54.975880 -18.531773 0.454304 35.980930 2.866576 4.429320 -5.591091 1.276016 19.343191 -0.982015 36.582432 -1.899096 55.035149 148.518280 -36.108593 12.975821 46.833168 -0.699337 -9.732500 -82.783234 8.348795 30.967789 33.325722 1.540205 -41.596474 -3.841290 5.887718 21.580154 -80.516846 11.590115 -15.975717 33.851250 -1.590056 41.560421 -4.089809 -6.673383 -23.617579 
19.995884 22.721600 11.561401 121.001572 -0.000273 -167.007980 13.356621 -0.001648 -8.001635 25.509649 -0.001725 -6.451069 13.997129 -18.446486 0.000114 -1.218151 -1.427319 9.311926 2.065283 -4.449954 1.880948 -52.131104 1.804476 54.976002 -18.531773 0.454304 35.980930 2.794991 4.391837 -5.293216 1.276016 19.343191 -0.982015 36.582432 -1.899096 55.035149 148.743546 -36.108627 12.975820 46.833168 -0.699337 -9.732500 -82.558105 8.348825 30.967789 33.325722 1.540205 -41.596474 -3.841290 5.887718 21.580154 -80.317093 11.590001 -15.975802 33.851250 -1.590056 41.560421 -4.089809 -6.673383 -23.617579 
19.995884 22.721600 11.561401 121.001572 -0.000273 -167.007980 13.707055 -0.001611 -8.001614 24.730152 -0.001749 -6.451118 13.997128 -18.353430 0.000113 -0.959237 -1.425522 8.529445 2.371533 -4.665182 2.157083 -51.999493 1.790161 54.976097 -18.531773 0.454304 35.980930 2.723218 4.354725 -4.995318 1.276016 19.343191 -0.982015 36.582432 -1.899096 55.035149 148.968811 -36.108658 12.975818 46.833168 -0.699337 -9.732500 -82.332962 8.348850 30.967781 33.325722 1.540205 -41.596474 -3.841290 5.887718 21.580154 -80.117325 11.589892 -15.975891 33.851250 -1.590056 41.560421 -4.089809 -6.673383 -23.617579 
19.995884 22.721600 11.561401 121.001572 -0.000273 -167.007980 14.057469 -0.001573 -8.001594 23.950880 -0.001773 -6.451170 13.997129 -18.260376 0.000112 -0.700398 -1.420192 7.747057 2.678888 -4.878912 2.434428 -51.867889 1.775839 54.976151 -18.531773 0.454304 35.980930 2.651258 4.317989 -4.697401 1.276016 19.343191 -0.982015 36.582432 -1.899096 55.035149 149.194046 -36.108692 12.975816 46.833168 -0.699337 -9.732500 -82.107834 8.348882 30.967781 33.325722 1.540205 -41.596474 -3.841290 5.887718 21.580154 -79.917587 11.589783 -15.975982 33.851250 -1.590056 41.560421 -4.089809 -6.673383 -23.617579 
19.995884 22.721600 11.561401 121.001572 -0.000273 -167.007980 14.407861 -0.001536 -8.001575 23.171892 -0.001799 -6.451219 13.997128 -18.167313 0.000112 -0.441710 -1.411331 6.964866 2.987339 -5.091128 2.712976 -51.736298 1.761525 54.976185 -18.531773 0.454304 35.980930 2.579117 4.281629 -4.399472 1.276016 19.343191 -0.982015 36.582432 -1.899096 55.035149 149.419281 -36.108723 12.975812 46.833168 -0.699337 -9.732500 -81.882698 8.348907 30.967768 33.325722 1.540205 -41.596474 -3.841290 5.887718 21.580154 -79.717842 11.589678 -15.976075 33.851250 -1.590056 41.560421 -4.089809 -6.673383 -23.617579 
19.995884 22.721600 11.561401 121.001572 -0.000273 -167.007980 14.758215 -0.001499 -8.001554 22.393267 -0.001824 -6.451269 13.997128 -18.074247 0.000111 -0.183248 -1.398945 6.182966 3.296879 -5.301812 2.992717 -51.604687 1.747207 54.976166 -18.531773 0.454304 35.980930 2.506794 4.245645 -4.101533 1.276016 19.343191 -0.982015 36.582432 -1.899096 55.035149 149.644516 -36.108757 12.975815 46.833168 -0.699337 -9.732500 -81.657608 8.348940 30.967768 33.325722 1.540205 -41.596474 -3.841290 5.887718 21.580154 -79.518105 11.589567 -15.976165 33.851250 -1.590056 41.560421 -4.089809 -6.673383 -23.617579 
19.995884 22.721600 11.561401 121.001572 -0.000273 -167.007980 15.108531 -0.001463 -8.001533 21.615072 -0.001851 -6.451319 13.997125 -17.981176 0.000111 0.074916 -1.383042 5.401450 3.607499 -5.510947 3.273643 -51.473099 1.732892 54.976124 -18.531773 0.454304 35.980930 2.434296 4.210041 -3.803589 1.276016 19.343191 -0.982015 36.582432 -1.899096 55.035149 149.869751 -36.108791 12.975811 46.833168 -0.699337 -9.732500 -81.432495 8.348969 30.967760 33.325722 1.540205 -41.596474 -3.841290 5.887718 21.580154 -79.318375 11.589458 -15.976254 33.851250 -1.590056 41.560421 -4.089809 -6.673383 -23.617579 
19.995884 22.721600 11.561401 121.001572 -0.000273 -167.007980 15.458803 -0.001426 -8.001513 20.837378 -0.001878 -6.451367 13.997125 -17.888103 0.000111 0.332704 -1.363631 4.620420 3.919188 -5.718516 3.555743 -51.341503 1.718572 54.976059 -18.531773 0.454304 35.980930 2.361624 4.174816 -3.505645 1.276016 19.343191 -0.982015 36.582432 -1.899096 55.035149 150.094971 -36.108829 12.975814 46.833168 -0.699337 -9.732500 -81.207413 8.348996 30.967760 33.325722 1.540205 -41.596474 -3.841290 5.887718 21.580154 -79.118652 11.589352 -15.976347 33.851250 -1.590056 41.560421 -4.089809 -6.673383 -23.617579 
19.995884 22.721600 11.561401 121.001572 -0.000273 -167.007980 15.809023 -0.001389 -8.001492 20.060259 -0.001906 -6.451415 13.997123 -17.795023 0.000110 0.590045 -1.340724 3.839967 4.231939 -5.924499 3.839009 -51.209923 1.704258 54.975956 -18.531773 0.454304 35.980930 2.288780 4.139973 -3.207705 1.276016 19.343191 -0.982015 36.582432 -1.899096 55.035149 150.320160 -36.108868 12.975814 46.833168 -0.699337 -9.732500 -80.982338 8.349027 30.967756 33.325722 1.540205 -41.596474 -3.841290 5.887718 21.580154 -78.918938 11.589241 -15.976436 33.851250 -1.590056 41.560421 -4.089809 -6.673383 -23.617579 
19.995884 22.721600 11.561401 121.001572 -0.000273 -167.007980 16.159182 -0.001353 -8.001471 19.283789 -0.001934 -6.451463 13.997126 -17.701944 0.000109 0.846865 -1.314335 3.060188 4.545740 -6.128882 4.123428 -51.078342 1.689942 54.975819 -18.531773 0.454304 35.980930 2.215770 4.105514 -2.909775 1.276016 19.343191 -0.982015 36.582432 -1.899096 55.035149 150.545319 -36.108894 12.975807 46.833168 -0.699337 -9.732500 -80.757271 8.349055 30.967747 33.325722 1.540205 -41.596474 -3.841290 5.887718 21.580154 -78.719231 11.589134 -15.976528 33.851250 -1.590056 41.560421 -4.089809 -6.673383 -23.617579 
19.995884 22.721600 11.561401 121.001572 -0.000273 -167.007980 16.509274 -0.001317 -8.001448 18.508034 -0.001963 -6.451511 13.997125 -17.608862 0.000109 1.103090 -1.284480 2.281177 4.860584 -6.331648 4.408992 -50.946754 1.675626 54.975639 -18.531773 0.454304 35.980930 2.142595 4.071437 -2.611857 1.276016 19.343191 -0.982015 36.582432 -1.899096 55.035149 150.770493 -36.108921 12.975809 46.833168 -0.699337 -9.732500 -80.532211 8.349082 30.967739 33.325722 1.540205 -41.596474 -3.841290 5.887718 21.580154 -78.519554 11.589029 -15.976624 33.851250 -1.590056 41.560421 -4.089809 -6.673383 -23.617579 
19.995884 22.721600 11.561401 121.001572 -0.000273 -167.007980 16.859297 -0.001280 -8.001425 17.733059 -0.001993 -6.451558 13.997123 -17.515772 0.000109 1.358649 -1.251178 1.503030 5.176458 -6.532779 4.695689 -50.815174 1.661312 54.975430 -18.531773 0.454304 35.980930 2.069258 4.037747 -2.313958 1.276016 19.343191 -0.982015 36.582432 -1.899096 55.035149 150.995651 -36.108978 12.975815 46.833168 -0.699337 -9.732500 -80.307198 8.349114 30.967743 33.325722 1.540205 -41.596474 -3.841290 5.887718 21.580154 -78.319878 11.588924 -15.976718 33.851250 -1.590056 41.560421 -4.089809 -6.673383 -23.617579 
19.995884 22.721600 11.561401 121.001572 -0.000273 -167.007980 17.209242 -0.001244 -8.001404 16.958946 -0.002023 -6.451606 13.997121 -17.422678 0.000108 1.613472 -1.214448 0.725835 5.493351 -6.732260 4.983506 -50.683609 1.646999 54.975204 -18.531773 0.454304 35.980930 1.995763 4.004443 -2.016083 1.276016 19.343191 -0.982015 36.582432 -1.899096 55.035149 151.220779 -36.109001 12.975811 46.833168 -0.699337 -9.732500 -80.082191 8.349142 30.967739 33.325722 1.540205 -41.596474 -3.841290 5.887718 21.580154 -78.120232 11.588818 -15.976813 33.851250 -1.590056 41.560421 -4.089809 -6.673383 -23.617579 
19.995884 22.721600 11.561401 121.001572 -0.000273 -167.007980 17.559099 -0.001208 -8.001383 16.185753 -0.002054 -6.451653 13.997122 -17.329586 0.000107 1.867486 -1.174313 -0.050310 5.811257 -6.930078 5.272437 -50.552055 1.632688 54.974934 -18.531773 0.454304 35.980930 1.922112 3.971528 -1.718234 1.276016 19.343191 -0.982015 36.582432 -1.899096 55.035149 151.445862 -36.109039 12.975814 46.833168 -0.699337 -9.732500 -79.857208 8.349172 30.967733 33.325722 1.540205 -41.596474 -3.841290 5.887718 21.580154 -77.920578 11.588710 -15.976904 33.851250 -1.590056 41.560421 -4.089809 -6.673383 -23.617579 
19.995884 22.721600 11.561401 121.001572 -0.000273 -167.007980 17.908865 -0.001173 -8.001360 15.413551 -0.002085 -6.451698 13.997122 -17.236486 0.000107 2.120621 -1.130798 -0.825317 6.130158 -7.126211 5.562464 -50.420486 1.618377 54.974621 -18.531773 0.454304 35.980930 1.848311 3.939002 -1.420418 1.276016 19.343191 -0.982015 36.582432 -1.899096 55.035149 151.670944 -36.109074 12.975813 46.833168 -0.699337 -9.732500 -79.632256 8.349199 30.967726 33.325722 1.540205 -41.596474 -3.841290 5.887718 21.580154 -77.720947 11.588603 -15.976997 33.851250 -1.590056 41.560421 -4.089809 -6.673383 -23.617579 
19.995884 22.721600 11.561401 121.001572 -0.000273 -167.007980 18.258537 -0.001137 -8.001337 14.642413 -0.002117 -6.451744 13.997122 -17.143387 0.000106 2.372811 -1.083927 -1.599099 6.450047 -7.320646 5.853579 -50.288940 1.604067 54.974293 -18.531773 0.454304 35.980930 1.774359 3.906865 -1.122638 1.276016 19.343191 -0.982015 36.582432 -1.899096 55.035149 151.896011 -36.109108 12.975815 46.833168 -0.699337 -9.732500 -79.407326 8.349230 30.967726 33.325722 1.540205 -41.596474 -3.841290 5.887718 21.580154 -77.521347 11.588499 -15.977094 33.851250 -1.590056 41.560421 -4.089809 -6.673383 -23.617579 
19.995884 22.721600 11.561401 121.001572 -0.000273 -167.007980 18.608103 -0.001102 -8.001314 13.872399 -0.002150 -6.451788 13.997119 -17.050282 0.000106 2.623984 -1.033729 -2.371558 6.770911 -7.513372 6.145769 -50.157391 1.589761 54.973919 -18.531773 0.454304 35.980930 1.700261 3.875121 -0.824900 1.276016 19.343191 -0.982015 36.582432 -1.899096 55.035149 152.121017 -36.109142 12.975814 46.833168 -0.699337 -9.732500 -79.182411 8.349257 30.967716 33.325722 1.540205 -41.596474 -3.841290 5.887718 21.580154 -77.321754 11.588394 -15.977189 33.851250 -1.590056 41.560421 -4.089809 -6.673383 -23.617579 
19.995884 22.721600 11.561401 121.001572 -0.000273 -167.007980 18.957554 -0.001067 -8.001290 13.103585 -0.002183 -6.451833 13.997122 -16.957180 0.000106 2.874078 -0.980234 -3.142615 7.092736 -7.704366 6.439018 -50.025864 1.575455 54.973526 -18.531773 0.454304 35.980930 1.626022 3.843769 -0.527208 1.276016 19.343191 -0.982015 36.582432 -1.899096 55.035149 152.346024 -36.109180 12.975818 46.833168 -0.699337 -9.732500 -78.957550 8.349287 30.967720 33.325722 1.540205 -41.596474 -3.841290 5.887718 21.580154 -77.122177 11.588289 -15.977283 33.851250 -1.590056 41.560421 -4.089809 -6.673383 -23.617579 
19.995884 22.721600 11.561401 121.001572 -0.000273 -167.007980 19.306892 -0.001031 -8.001267 12.336030 -0.002217 -6.451877 13.997121 -16.864069 0.000105 3.123024 -0.923474 -3.912177 7.415514 -7.893620 6.733318 -49.894321 1.561147 54.973080 -18.531773 0.454304 35.980930 1.551642 3.812811 -0.229565 1.276016 19.343191 -0.982015 36.582432 -1.899096 55.035149 152.570984 -36.109215 12.975820 46.833168 -0.699337 -9.732500 -78.732697 8.349317 30.967716 33.325722 1.540205 -41.596474 -3.841290 5.887718 21.580154 -76.922638 11.588183 -15.977379 33.851250 -1.590056 41.560421 -4.089809 -6.673383 -23.617579 
